<?xml version="1.0" encoding="UTF-8"?><svg id="Layer_1" xmlns="http://www.w3.org/2000/svg" viewBox="0 0 432 288"><defs><style>.cls-1{fill:#fff;}.cls-2{opacity:.1;}.cls-3{fill:#1f1f1f;}</style></defs><rect class="cls-3" width="432" height="288"/><g class="cls-2"><path class="cls-1" d="m325.53,263.37c-.99-.39-1.62.43-2.86.89-1.83.67-2.03,1.85-1.33,2.41.7.56,1.77-.05,2.63.34,0,0,0,0,0,0,0,0,0,0,0,0,.87.35,1.17,1.54,2.06,1.67s1.6-.84.82-2.63c-.53-1.22-.36-2.24-1.34-2.68Z"/><path class="cls-1" d="m323.46,261.63c.22.98-.11,1.89-.74,2.04-.63.14-1.33-.53-1.55-1.51s.11-1.89.74-2.04c.63-.14,1.33.53,1.55,1.51Z"/><path class="cls-1" d="m328.21,263.65c-.86.52-1.29,1.39-.96,1.94.33.56,1.3.59,2.17.07s1.29-1.39.96-1.94c-.33-.56-1.3-.59-2.17-.07Z"/><path class="cls-1" d="m326.39,260.65c-.24,1.03-.97,1.75-1.64,1.59-.67-.15-1.01-1.12-.77-2.15.24-1.03.97-1.75,1.64-1.59.67.15,1.01,1.12.77,2.15Z"/><path class="cls-1" d="m326.9,260.87c-.58.89-.59,1.91-.02,2.28s1.51-.04,2.09-.93c.58-.89.59-1.91.02-2.28-.57-.37-1.51.04-2.09.93Z"/><path class="cls-1" d="m397.97,63.17c1.52.72,2.57-.51,4.57-1.1,2.93-.87,3.37-2.68,2.32-3.63s-2.78-.1-4.08-.8c0,0,0,0-.01,0,0,0,0,0-.01,0-1.33-.64-1.68-2.54-3.06-2.81s-2.59,1.15-1.55,4.03c.71,1.96.35,3.54,1.82,4.33Z"/><path class="cls-1" d="m401.02,66.11c-.25-1.56.36-2.95,1.36-3.11,1-.16,2.02.97,2.28,2.52.25,1.56-.36,2.95-1.36,3.11s-2.02-.97-2.28-2.52Z"/><path class="cls-1" d="m393.79,62.46c1.4-.72,2.17-2.04,1.7-2.94-.46-.91-1.98-1.05-3.38-.33-1.4.72-2.17,2.04-1.7,2.94.46.9,1.98,1.05,3.38.33Z"/><path class="cls-1" d="m396.35,67.34c.48-1.59,1.7-2.64,2.73-2.33,1.03.31,1.47,1.85.99,3.44-.48,1.59-1.7,2.64-2.73,2.33-1.03-.31-1.47-1.85-.99-3.44Z"/><path class="cls-1" d="m395.57,66.95c1-1.33,1.11-2.93.26-3.58-.86-.64-2.36-.09-3.36,1.24-1,1.33-1.11,2.93-.26,3.58.86.64,2.36.09,3.36-1.24Z"/><path class="cls-1" d="m186.98,235.35c-1.77-2.43-4.48-1.41-8.14-2.19-5.36-1.15-7.61,1.33-6.78,3.73.83,2.39,4.28,2.54,5.74,4.75,0,0,0,.01.01.02,0,0,0,.01.01.02,1.55,2.15.46,5.43,2.4,7.06,1.94,1.63,5.06.4,5.89-5.01.57-3.69,2.49-5.86.85-8.38Z"/><path class="cls-1" d="m184.7,228.11c-.94,2.67-3.09,4.34-4.81,3.73-1.72-.6-2.35-3.26-1.41-5.93s3.09-4.34,4.81-3.73c1.72.6,2.35,3.26,1.41,5.93Z"/><path class="cls-1" d="m192.94,240.06c-2.83-.07-5.16,1.35-5.2,3.17-.05,1.82,2.21,3.36,5.04,3.43,2.83.07,5.16-1.35,5.2-3.17.05-1.82-2.21-3.36-5.04-3.43Z"/><path class="cls-1" d="m193.11,230.18c-2.12,2.1-4.94,2.69-6.29,1.32-1.35-1.37-.73-4.18,1.39-6.27,2.12-2.1,4.94-2.69,6.29-1.32,1.35,1.37.73,4.18-1.39,6.27Z"/><path class="cls-1" d="m194,231.46c-2.71,1.24-4.27,3.66-3.47,5.41.8,1.75,3.64,2.17,6.36.93,2.71-1.24,4.27-3.66,3.47-5.41-.8-1.75-3.64-2.17-6.36-.93Z"/><path class="cls-1" d="m25.23,70.77c-1.18-3.09-4.35-2.79-7.99-4.67-5.35-2.77-8.45-.79-8.26,1.99s3.8,3.93,4.71,6.7v.03s.01.02.02.03c1.02,2.73-1.08,5.89.51,8.17s5.24,1.89,7.69-3.6c1.67-3.75,4.34-5.49,3.32-8.64Z"/><path class="cls-1" d="m24.9,62.43c-1.77,2.56-4.53,3.7-6.18,2.57-1.65-1.14-1.55-4.13.22-6.69,1.77-2.56,4.53-3.7,6.18-2.57s1.55,4.13-.22,6.69Z"/><path class="cls-1" d="m30.18,77.48c-2.98-.89-5.85-.06-6.43,1.86-.58,1.92,1.37,4.2,4.35,5.09s5.85.06,6.43-1.86c.58-1.92-1.37-4.2-4.35-5.09Z"/><path class="cls-1" d="m33.22,67.06c-2.85,1.61-6.01,1.42-7.05-.42-1.04-1.84.44-4.64,3.29-6.25,2.85-1.61,6.01-1.42,7.05.42,1.04,1.84-.44,4.64-3.29,6.25Z"/><path class="cls-1" d="m33.79,68.67c-3.23.53-5.58,2.64-5.24,4.73.34,2.08,3.23,3.35,6.47,2.82,3.23-.52,5.58-2.64,5.24-4.73s-3.23-3.35-6.47-2.82Z"/><path class="cls-1" d="m74.16,262.75c-.4-1.19-1.61-1.12-2.96-1.89-1.99-1.13-3.19-.42-3.16.64.03,1.06,1.39,1.55,1.69,2.61,0,0,0,0,0,0s0,0,0,0c.35,1.05-.5,2.22.07,3.11.57.89,1.96.79,2.97-1.26.69-1.4,1.72-2.02,1.39-3.23Z"/><path class="cls-1" d="m74.15,259.58c-.71.94-1.77,1.34-2.38.88-.61-.46-.53-1.59.18-2.54.71-.94,1.77-1.34,2.38-.88s.53,1.59-.18,2.54Z"/><path class="cls-1" d="m75.94,265.37c-1.12-.38-2.22-.11-2.47.61-.25.72.46,1.61,1.58,1.99s2.22.11,2.47-.61-.46-1.61-1.58-1.99Z"/><path class="cls-1" d="m77.24,261.46c-1.11.57-2.3.45-2.67-.26s.23-1.75,1.34-2.32c1.11-.57,2.3-.45,2.67.26.37.71-.23,1.75-1.34,2.32Z"/><path class="cls-1" d="m77.44,262.08c-1.23.15-2.16.92-2.06,1.72.1.8,1.18,1.32,2.41,1.17,1.23-.15,2.16-.92,2.06-1.72s-1.18-1.32-2.41-1.17Z"/><path class="cls-1" d="m217.55,267.74c.87-1.8-.58-3.07-1.27-5.46-1.01-3.5-3.17-4.05-4.32-2.81-1.14,1.24-.15,3.31-.99,4.86h0s0,.02,0,.03c-.78,1.58-3.04,1.98-3.39,3.63s1.35,3.1,4.79,1.88c2.34-.83,4.22-.38,5.19-2.13Z"/><path class="cls-1" d="m221.08,264.12c-1.86.29-3.52-.45-3.7-1.65-.19-1.2,1.17-2.4,3.03-2.69s3.52.45,3.7,1.65c.19,1.2-1.17,2.4-3.03,2.69Z"/><path class="cls-1" d="m216.66,272.71c-.85-1.68-2.41-2.6-3.5-2.06-1.08.55-1.28,2.35-.43,4.03s2.41,2.6,3.5,2.06,1.28-2.35.43-4.03Z"/><path class="cls-1" d="m222.51,269.71c-1.9-.59-3.13-2.05-2.75-3.27s2.22-1.74,4.12-1.15c1.9.59,3.13,2.05,2.75,3.27s-2.22,1.74-4.12,1.15Z"/><path class="cls-1" d="m222.04,270.63c-1.58-1.2-3.49-1.36-4.26-.34s-.13,2.82,1.45,4.02,3.49,1.36,4.26.34c.78-1.02.13-2.82-1.45-4.02Z"/><path class="cls-1" d="m204.48,202.01c1.14-3.22-1.56-5.1-3.17-9.02-2.36-5.75-6.13-6.27-7.84-3.95s.36,5.64-.77,8.43c0,0,0,.02-.01.03,0,0,0,.02,0,.03-1.02,2.83-4.79,3.91-5.07,6.78-.28,2.86,2.87,5,8.47,2.3,3.82-1.84,7.09-1.43,8.39-4.58Z"/><path class="cls-1" d="m209.79,195.23c-3.1.83-6.05-.11-6.59-2.11-.54-2,1.54-4.29,4.64-5.13,3.1-.83,6.05.11,6.59,2.11.54,2-1.54,4.29-4.64,5.13Z"/><path class="cls-1" d="m203.89,210.61c-1.75-2.69-4.57-3.96-6.31-2.84-1.74,1.13-1.73,4.22.02,6.92,1.75,2.69,4.57,3.96,6.31,2.84,1.74-1.13,1.73-4.22-.02-6.92Z"/><path class="cls-1" d="m213.26,204.43c-3.32-.64-5.69-2.9-5.27-5.04.41-2.14,3.44-3.36,6.77-2.72,3.32.64,5.69,2.9,5.27,5.04-.41,2.14-3.44,3.36-6.77,2.72Z"/><path class="cls-1" d="m212.62,206.09c-2.9-1.75-6.16-1.65-7.29.22s.31,4.8,3.21,6.55c2.9,1.75,6.16,1.65,7.29-.22,1.13-1.87-.31-4.8-3.21-6.55Z"/><path class="cls-1" d="m167.71,266.69c-.1,1.1.89,1.48,1.71,2.58,1.2,1.62,2.42,1.49,2.77.62.35-.86-.56-1.74-.42-2.71,0,0,0,0,0,0h0c.1-.98,1.2-1.62,1.06-2.54-.14-.92-1.3-1.34-2.84-.06-1.06.88-2.11,1.01-2.28,2.1Z"/><path class="cls-1" d="m166.58,269.24c.91-.51,1.91-.44,2.24.14.33.59-.15,1.47-1.05,1.98-.91.51-1.91.44-2.24-.14-.33-.59.15-1.47,1.05-1.98Z"/><path class="cls-1" d="m167.22,263.94c.76.71,1.75.88,2.21.39.46-.49.21-1.46-.55-2.17-.76-.71-1.75-.88-2.21-.39-.46.49-.21,1.46.55,2.17Z"/><path class="cls-1" d="m164.77,266.62c1.1-.06,2.01.46,2.05,1.17.04.71-.82,1.33-1.91,1.39-1.1.06-2.01-.46-2.05-1.17-.04-.71.82-1.33,1.91-1.39Z"/><path class="cls-1" d="m164.83,266.06c1.05.32,2.07.03,2.27-.64.21-.68-.48-1.48-1.52-1.8-1.05-.32-2.07-.03-2.27.64-.21.68.48,1.48,1.52,1.8Z"/><path class="cls-1" d="m118.88,18.95c-.98-.75-1.93-.03-3.46.1-2.24.18-2.84,1.42-2.23,2.26s1.98.5,2.82,1.2c0,0,0,0,0,0,0,0,0,0,0,0,.86.67.82,2.08,1.77,2.49.96.41,2.04-.43,1.73-2.66-.21-1.52.29-2.6-.65-3.4Z"/><path class="cls-1" d="m117.13,16.37c-.06,1.16-.71,2.07-1.45,2.04s-1.31-1.01-1.25-2.17c.06-1.16.71-2.07,1.45-2.04.75.04,1.31,1.01,1.25,2.17Z"/><path class="cls-1" d="m121.78,20.1c-1.12.3-1.87,1.14-1.67,1.86.2.72,1.26,1.06,2.38.76,1.12-.3,1.87-1.14,1.67-1.86-.2-.72-1.26-1.06-2.38-.76Z"/><path class="cls-1" d="m120.68,16.19c-.59,1.07-1.63,1.64-2.32,1.26-.69-.38-.78-1.56-.19-2.63.59-1.07,1.63-1.64,2.32-1.26s.78,1.56.19,2.63Z"/><path class="cls-1" d="m121.18,16.6c-.92.81-1.25,1.94-.73,2.54s1.69.42,2.61-.38c.92-.81,1.25-1.94.73-2.54s-1.69-.42-2.61.38Z"/><path class="cls-1" d="m325.63,177.71c.69,1.39,2.16,1.11,3.96,1.82,2.63,1.05,3.99-.01,3.78-1.31-.21-1.29-1.96-1.67-2.51-2.92,0,0,0,0,0-.01h0c-.6-1.24.24-2.82-.61-3.82s-2.54-.65-3.44,2.04c-.61,1.83-1.78,2.77-1.16,4.2Z"/><path class="cls-1" d="m326.16,181.6c.71-1.28,1.96-1.94,2.78-1.48s.91,1.87.2,3.14c-.71,1.28-1.96,1.94-2.78,1.48-.82-.46-.91-1.87-.2-3.14Z"/><path class="cls-1" d="m323,174.79c1.43.28,2.75-.24,2.93-1.16.18-.92-.83-1.9-2.27-2.19-1.43-.28-2.75.24-2.93,1.16-.18.92.83,1.9,2.27,2.19Z"/><path class="cls-1" d="m322.05,179.82c1.26-.88,2.75-.94,3.32-.12s0,2.19-1.26,3.07c-1.26.88-2.75.94-3.32.12-.57-.81,0-2.19,1.26-3.07Z"/><path class="cls-1" d="m321.71,179.08c1.49-.39,2.49-1.49,2.24-2.45s-1.67-1.42-3.16-1.03c-1.49.39-2.49,1.49-2.24,2.45.25.96,1.67,1.42,3.16,1.03Z"/><path class="cls-1" d="m414.78,218.45c.91-1.08.14-2.21.09-3.97-.08-2.58-1.46-3.33-2.47-2.68-1,.65-.68,2.24-1.53,3.16,0,0,0,0,0,0,0,0,0,0,0,0-.81.95-2.43.82-2.96,1.89-.53,1.07.38,2.36,2.95,2.13,1.75-.15,2.96.48,3.93-.55Z"/><path class="cls-1" d="m417.83,216.59c-1.33-.13-2.33-.93-2.25-1.78.08-.86,1.23-1.44,2.55-1.31,1.33.13,2.33.93,2.25,1.78-.08.85-1.23,1.44-2.55,1.31Z"/><path class="cls-1" d="m413.29,221.71c-.28-1.3-1.2-2.21-2.03-2.03s-1.29,1.39-1,2.69c.28,1.3,1.2,2.21,2.03,2.03.84-.18,1.29-1.39,1-2.69Z"/><path class="cls-1" d="m417.83,220.68c-1.2-.74-1.78-1.96-1.31-2.73.47-.77,1.83-.8,3.03-.07,1.2.74,1.78,1.96,1.31,2.73-.47.77-1.83.8-3.03.07Z"/><path class="cls-1" d="m417.34,221.23c-.87-1.1-2.15-1.54-2.86-.98-.71.56-.58,1.91.29,3.01.87,1.1,2.15,1.54,2.86.98.71-.56.58-1.91-.29-3.01Z"/><path class="cls-1" d="m308.71,27.06c2.3.72,3.56-1.24,6.29-2.48,4-1.82,4.27-4.49,2.59-5.64-1.68-1.15-3.97.4-5.97-.32,0,0-.01,0-.02,0,0,0-.01,0-.02,0-2.03-.65-2.89-3.28-4.92-3.4-2.03-.12-3.46,2.15-1.41,6.04,1.4,2.65,1.19,4.97,3.46,5.81Z"/><path class="cls-1" d="m313.65,30.64c-.67-2.17-.08-4.28,1.32-4.71,1.4-.43,3.07.98,3.74,3.15s.08,4.28-1.32,4.71c-1.4.43-3.07-.98-3.74-3.15Z"/><path class="cls-1" d="m302.62,26.87c1.86-1.3,2.68-3.33,1.84-4.53-.84-1.2-3.03-1.11-4.88.19-1.86,1.3-2.68,3.33-1.84,4.53.84,1.2,3.03,1.11,4.88-.19Z"/><path class="cls-1" d="m307.23,33.32c.37-2.37,1.9-4.09,3.42-3.86,1.52.24,2.46,2.34,2.1,4.71s-1.9,4.09-3.42,3.86c-1.52-.24-2.46-2.34-2.1-4.71Z"/><path class="cls-1" d="m306.05,32.92c1.16-2.09,1.01-4.4-.34-5.14-1.35-.75-3.38.34-4.54,2.44s-1.01,4.4.34,5.14,3.38-.34,4.54-2.44Z"/><path class="cls-1" d="m369.72,173.66c-1.12-2.02-3.29-1.5-6-2.45-3.98-1.39-5.93.29-5.53,2.2s3.02,2.35,3.93,4.18c0,0,0,.01,0,.02,0,0,0,.01,0,.02.98,1.79-.17,4.19,1.16,5.62,1.33,1.43,3.82.79,4.98-3.26.79-2.76,2.46-4.23,1.45-6.32Z"/><path class="cls-1" d="m368.67,167.91c-.97,1.95-2.78,3.02-4.03,2.39-1.25-.63-1.48-2.71-.51-4.66.97-1.95,2.78-3.02,4.03-2.39,1.25.63,1.48,2.71.51,4.66Z"/><path class="cls-1" d="m373.81,177.82c-2.15-.32-4.06.54-4.27,1.92-.21,1.39,1.36,2.77,3.52,3.1,2.15.32,4.06-.54,4.27-1.92s-1.36-2.77-3.52-3.1Z"/><path class="cls-1" d="m374.89,170.29c-1.82,1.4-4.02,1.58-4.92.41-.9-1.17-.16-3.26,1.66-4.65,1.82-1.4,4.02-1.58,4.92-.41s.16,3.26-1.66,4.65Z"/><path class="cls-1" d="m375.44,171.36c-2.19.68-3.61,2.38-3.17,3.79.44,1.41,2.57,2,4.76,1.32s3.61-2.38,3.17-3.79c-.44-1.41-2.57-2-4.76-1.32Z"/><path class="cls-1" d="m377.9,131.18c3.36,2.44,6.49-.06,11.61-.59,7.52-.77,9.42-4.98,7.31-7.77-2.11-2.79-6.7-1.52-9.56-3.8,0,0-.02-.01-.03-.02,0,0-.02-.01-.03-.02-2.95-2.17-2.91-6.93-6.16-8.24-3.24-1.31-6.81,1.62-5.61,9.08.82,5.09-.78,8.75,2.45,11.37Z"/><path class="cls-1" d="m383.98,139.72c.1-3.9,2.22-7.01,4.73-6.95,2.52.06,4.48,3.28,4.38,7.18s-2.22,7.01-4.73,6.95c-2.52-.06-4.48-3.28-4.38-7.18Z"/><path class="cls-1" d="m368.08,127.53c3.74-1.11,6.2-3.96,5.48-6.38s-4.33-3.47-8.07-2.36c-3.74,1.11-6.2,3.96-5.48,6.38.71,2.41,4.33,3.47,8.07,2.36Z"/><path class="cls-1" d="m372.05,140.58c1.89-3.66,5.34-5.63,7.69-4.41,2.36,1.22,2.73,5.17.84,8.83-1.89,3.66-5.34,5.63-7.69,4.41-2.36-1.22-2.73-5.17-.84-8.83Z"/><path class="cls-1" d="m370.35,139.27c3.04-2.78,4.05-6.62,2.26-8.57-1.79-1.96-5.7-1.29-8.74,1.48-3.04,2.78-4.05,6.62-2.26,8.57,1.79,1.96,5.7,1.29,8.74-1.48Z"/><path class="cls-1" d="m280.88,178.52c3.17-1.58,2.52-4.93,4.15-9.01,2.39-5.99-.04-9.09-2.98-8.6-2.94.49-3.8,4.46-6.65,5.72,0,0-.02,0-.03.01,0,0-.02,0-.03.01-2.8,1.37-6.39-.54-8.66,1.39-2.27,1.93-1.47,5.79,4.65,7.83,4.17,1.39,6.31,4.05,9.56,2.64Z"/><path class="cls-1" d="m289.73,177.3c-2.91-1.62-4.42-4.45-3.38-6.32,1.04-1.88,4.25-2.09,7.16-.47,2.91,1.62,4.42,4.45,3.38,6.32-1.04,1.88-4.25,2.09-7.16.47Z"/><path class="cls-1" d="m274.24,184.5c.64-3.27-.55-6.25-2.65-6.66-2.11-.41-4.33,1.9-4.97,5.17-.64,3.27.55,6.25,2.65,6.66,2.11.41,4.33-1.9,4.97-5.17Z"/><path class="cls-1" d="m285.67,186.66c-2.01-2.88-2.14-6.26-.29-7.56,1.85-1.3,4.99-.02,7,2.85,2.01,2.88,2.14,6.26.29,7.56-1.85,1.3-4.99.02-7-2.85Z"/><path class="cls-1" d="m284.01,187.43c-.9-3.39-3.4-5.68-5.59-5.1-2.19.58-3.23,3.8-2.34,7.19s3.4,5.68,5.59,5.1c2.19-.58,3.23-3.8,2.34-7.19Z"/><path class="cls-1" d="m382.62,213.33c3.25,2.17,6.11-.29,10.91-.97,7.05-1,8.69-5.03,6.61-7.58-2.09-2.55-6.36-1.19-9.14-3.24,0,0-.02-.01-.03-.02,0,0-.02-.01-.03-.02-2.85-1.94-2.99-6.42-6.09-7.54s-6.36,1.77-4.95,8.76c.96,4.76-.42,8.27,2.72,10.62Z"/><path class="cls-1" d="m388.65,221.15c-.05-3.68,1.83-6.68,4.2-6.72s4.33,2.92,4.38,6.6c.05,3.68-1.83,6.68-4.2,6.72-2.37.03-4.33-2.92-4.38-6.6Z"/><path class="cls-1" d="m373.24,210.25c3.48-1.18,5.69-3.96,4.93-6.2-.76-2.25-4.2-3.11-7.68-1.93-3.48,1.18-5.69,3.96-4.93,6.2.76,2.25,4.2,3.11,7.68,1.93Z"/><path class="cls-1" d="m377.45,222.39c1.65-3.51,4.82-5.49,7.09-4.43s2.76,4.77,1.11,8.28-4.82,5.49-7.09,4.43c-2.26-1.06-2.76-4.77-1.11-8.28Z"/><path class="cls-1" d="m375.8,221.22c2.76-2.73,3.57-6.38,1.82-8.16-1.76-1.78-5.42-1.01-8.18,1.71s-3.57,6.38-1.82,8.16c1.76,1.78,5.42,1.01,8.18-1.71Z"/><path class="cls-1" d="m354.75,91.49c-1.09-.73-2.05.1-3.66.33-2.37.33-2.92,1.69-2.22,2.55.7.86,2.14.4,3.07,1.09,0,0,0,0,0,0,0,0,0,0,0,0,.96.65,1,2.16,2.05,2.53,1.04.38,2.14-.59,1.66-2.94-.32-1.6.14-2.78-.91-3.56Z"/><path class="cls-1" d="m352.73,88.86c.02,1.23-.62,2.24-1.41,2.25-.8.01-1.45-.98-1.47-2.22s.62-2.24,1.41-2.25c.8-.01,1.45.98,1.47,2.22Z"/><path class="cls-1" d="m357.9,92.52c-1.17.4-1.91,1.33-1.66,2.08.26.75,1.41,1.05,2.58.65s1.91-1.33,1.66-2.08c-.26-.75-1.41-1.05-2.58-.65Z"/><path class="cls-1" d="m356.49,88.44c-.55,1.18-1.62,1.84-2.38,1.49-.76-.36-.93-1.6-.37-2.78.55-1.18,1.62-1.84,2.38-1.49.76.36.93,1.6.37,2.78Z"/><path class="cls-1" d="m357.04,88.84c-.93.91-1.2,2.14-.61,2.74.59.6,1.82.34,2.75-.57.93-.91,1.2-2.14.61-2.74-.59-.6-1.82-.34-2.75.57Z"/><path class="cls-1" d="m147.81,210.39c.33-2.33-1.75-3.24-3.37-5.67-2.38-3.57-4.99-3.41-5.83-1.61-.84,1.8,1.01,3.76.63,5.8v.02s0,.01,0,.02c-.31,2.05-2.7,3.3-2.5,5.27s2.62,2.99,6.04.4c2.33-1.76,4.6-1.93,5.05-4.24Z"/><path class="cls-1" d="m150.48,205.08c-1.98.98-4.1.75-4.74-.53-.63-1.28.46-3.11,2.44-4.1,1.98-.98,4.1-.75,4.74.53s-.46,3.11-2.44,4.1Z"/><path class="cls-1" d="m148.59,216.28c-1.55-1.58-3.63-2.06-4.65-1.06-1.02,1-.59,3.09.95,4.67,1.55,1.58,3.63,2.06,4.65,1.06s.59-3.09-.95-4.67Z"/><path class="cls-1" d="m154.08,210.83c-2.33.02-4.24-1.18-4.25-2.69-.01-1.5,1.87-2.74,4.2-2.76,2.33-.02,4.24,1.18,4.25,2.69.01,1.5-1.87,2.74-4.2,2.76Z"/><path class="cls-1" d="m153.87,212.04c-2.2-.79-4.39-.28-4.9,1.14-.51,1.42.86,3.2,3.06,3.99,2.2.79,4.39.28,4.9-1.14.51-1.42-.86-3.2-3.06-3.99Z"/><path class="cls-1" d="m20.3,225.95c1.57-.28,1.71-1.82,2.93-3.38,1.79-2.29,1.13-3.94-.21-4.1-1.34-.16-2.21,1.45-3.6,1.64,0,0,0,0-.01,0,0,0,0,0-.01,0-1.39.24-2.7-1.04-3.93-.49s-1.37,2.32,1.03,3.97c1.63,1.13,2.22,2.55,3.81,2.35Z"/><path class="cls-1" d="m24.29,226.54c-1.06-1.07-1.36-2.48-.67-3.16s2.1-.37,3.16.7c1.06,1.07,1.36,2.48.67,3.16s-2.1.37-3.16-.7Z"/><path class="cls-1" d="m16.67,227.71c.69-1.33.55-2.78-.31-3.22-.86-.44-2.12.28-2.8,1.61-.69,1.33-.55,2.78.31,3.22.86.44,2.12-.28,2.8-1.61Z"/><path class="cls-1" d="m21.35,230.08c-.51-1.5-.14-2.98.83-3.31.97-.33,2.16.62,2.67,2.12.51,1.5.14,2.98-.83,3.31-.97.33-2.16-.62-2.67-2.12Z"/><path class="cls-1" d="m20.53,230.21c.04-1.58-.76-2.89-1.78-2.91-1.02-.02-1.88,1.24-1.92,2.82-.04,1.58.76,2.89,1.78,2.91,1.02.02,1.88-1.24,1.92-2.82Z"/><path class="cls-1" d="m260.95,25.47c-1.28-1.23-2.75-.36-4.95-.45-3.23-.13-4.29,1.54-3.57,2.85.73,1.31,2.75,1.05,3.82,2.19,0,0,0,0,.01.01,0,0,0,0,.01.01,1.12,1.1.82,3.11,2.11,3.86,1.3.75,2.98-.28,2.92-3.51-.04-2.2.86-3.66-.35-4.96Z"/><path class="cls-1" d="m258.89,21.49c-.28,1.65-1.36,2.84-2.42,2.66-1.06-.18-1.7-1.66-1.42-3.3.28-1.65,1.36-2.84,2.42-2.66,1.06.18,1.7,1.66,1.42,3.3Z"/><path class="cls-1" d="m264.89,27.61c-1.65.24-2.86,1.31-2.71,2.37s1.62,1.73,3.28,1.49c1.65-.24,2.86-1.31,2.71-2.37-.16-1.06-1.62-1.73-3.28-1.49Z"/><path class="cls-1" d="m263.99,21.84c-1.02,1.43-2.6,2.06-3.52,1.4-.92-.66-.85-2.36.18-3.79,1.02-1.43,2.6-2.06,3.52-1.41.92.66.85,2.36-.18,3.79Z"/><path class="cls-1" d="m264.63,22.5c-1.45.99-2.11,2.56-1.47,3.5.64.94,2.34.89,3.79-.1s2.11-2.56,1.47-3.5c-.64-.94-2.34-.89-3.79.1Z"/><path class="cls-1" d="m100.69,228.55c.78,4.06,4.75,4.38,8.84,7.49,5.99,4.57,10.24,2.81,10.62-.66.37-3.47-3.83-5.67-4.35-9.28v-.03s0-.02-.01-.03c-.66-3.59,2.61-7.02,1.15-10.19-1.46-3.17-6.05-3.47-10.27,2.77-2.87,4.26-6.54,5.83-5.97,9.93Z"/><path class="cls-1" d="m99.28,238.9c2.73-2.77,6.39-3.58,8.18-1.82,1.78,1.76,1.01,5.43-1.72,8.2-2.73,2.77-6.39,3.58-8.18,1.82-1.78-1.76-1.02-5.43,1.72-8.2Z"/><path class="cls-1" d="m96.05,219.2c3.47,1.75,7.2,1.35,8.33-.89,1.13-2.24-.78-5.47-4.25-7.22-3.47-1.75-7.2-1.35-8.33.89-1.13,2.24.78,5.47,4.25,7.22Z"/><path class="cls-1" d="m90.03,231.39c3.87-1.36,7.72-.45,8.6,2.05.88,2.49-1.54,5.62-5.41,6.99-3.87,1.36-7.72.45-8.6-2.04-.88-2.49,1.54-5.62,5.41-6.99Z"/><path class="cls-1" d="m89.68,229.27c4.1.06,7.46-2.04,7.49-4.69s-3.26-4.83-7.36-4.89c-4.1-.05-7.46,2.04-7.49,4.69s3.26,4.83,7.36,4.89Z"/><path class="cls-1" d="m31.51,116.08c-2.73-2.14-5.41-.15-9.7.13-6.29.41-8.01,3.86-6.34,6.25,1.67,2.39,5.54,1.47,7.85,3.47,0,0,.01.01.02.02,0,0,.01.01.02.02,2.39,1.9,2.21,5.87,4.88,7.06s5.73-1.14,4.95-7.4c-.53-4.27.92-7.27-1.69-9.55Z"/><path class="cls-1" d="m26.71,108.77c-.2,3.25-2.06,5.78-4.16,5.65-2.09-.13-3.63-2.87-3.43-6.12.2-3.25,2.06-5.78,4.16-5.65,2.09.13,3.63,2.87,3.43,6.12Z"/><path class="cls-1" d="m39.59,119.42c-3.15.81-5.29,3.11-4.77,5.14s3.5,3.03,6.65,2.22c3.15-.81,5.29-3.11,4.77-5.14-.52-2.03-3.5-3.03-6.65-2.22Z"/><path class="cls-1" d="m36.68,108.42c-1.69,2.99-4.62,4.53-6.55,3.44-1.93-1.09-2.12-4.4-.43-7.38,1.69-2.99,4.62-4.53,6.55-3.44s2.12,4.4.43,7.38Z"/><path class="cls-1" d="m38.06,109.57c-2.62,2.22-3.58,5.39-2.15,7.08s4.71,1.26,7.33-.97c2.62-2.22,3.58-5.39,2.15-7.08-1.43-1.69-4.71-1.26-7.33.97Z"/><path class="cls-1" d="m409.22,263.88c-.09-1.13-1.16-1.33-2.17-2.3-1.49-1.42-2.69-1.07-2.9-.15-.21.93.87,1.66.9,2.65,0,0,0,0,0,0h0c.07,1-.92,1.84-.62,2.74s1.54,1.13,2.87-.44c.91-1.07,1.95-1.38,1.92-2.51Z"/><path class="cls-1" d="m409.92,261.12c-.83.67-1.85.78-2.28.25s-.11-1.51.72-2.17c.83-.67,1.84-.78,2.28-.24.43.53.11,1.51-.72,2.17Z"/><path class="cls-1" d="m410.2,266.56c-.89-.58-1.91-.59-2.29-.01-.37.57.04,1.51.93,2.09.89.58,1.91.59,2.29.01s-.04-1.51-.93-2.09Z"/><path class="cls-1" d="m412.2,263.44c-1.09.25-2.11-.11-2.27-.82-.16-.7.59-1.48,1.68-1.73s2.11.11,2.27.82c.16.7-.59,1.48-1.68,1.73Z"/><path class="cls-1" d="m412.23,264.02c-1.11-.14-2.09.33-2.18,1.04-.09.72.74,1.41,1.85,1.55,1.11.14,2.09-.33,2.18-1.04.09-.72-.74-1.41-1.85-1.55Z"/><path class="cls-1" d="m152.54,125.53c.9-.94.26-2.02.33-3.63.09-2.37-1.14-3.15-2.1-2.61-.96.53-.77,2.02-1.6,2.8,0,0,0,0,0,0,0,0,0,0,0,0-.8.82-2.28.6-2.83,1.55-.55.95.2,2.19,2.58,2.14,1.62-.03,2.69.63,3.64-.26Z"/><path class="cls-1" d="m155.46,124.01c-1.21-.2-2.08-1-1.95-1.77.13-.78,1.21-1.25,2.42-1.05,1.21.2,2.08,1,1.95,1.78s-1.21,1.25-2.42,1.05Z"/><path class="cls-1" d="m150.97,128.42c-.18-1.21-.96-2.1-1.74-1.98s-1.27,1.19-1.09,2.4c.18,1.21.96,2.1,1.74,1.98s1.27-1.19,1.09-2.4Z"/><path class="cls-1" d="m155.2,127.76c-1.05-.75-1.52-1.91-1.03-2.58.48-.68,1.73-.62,2.78.13,1.05.75,1.52,1.91,1.03,2.58-.48.68-1.73.62-2.78-.13Z"/><path class="cls-1" d="m154.72,128.23c-.73-1.07-1.88-1.55-2.57-1.08s-.65,1.72.08,2.78c.73,1.07,1.88,1.55,2.57,1.08s.65-1.72-.08-2.78Z"/><path class="cls-1" d="m92.1,131.22c-.77,2.85,1.68,4.3,3.32,7.58,2.41,4.81,5.69,5.01,7.01,2.91,1.33-2.11-.68-4.84.12-7.32,0,0,0-.02,0-.02,0,0,0-.02,0-.02.7-2.51,3.88-3.68,3.93-6.17.05-2.49-2.79-4.12-7.45-1.44-3.18,1.83-6.02,1.69-6.94,4.49Z"/><path class="cls-1" d="m87.95,137.42c2.62-.92,5.22-.29,5.82,1.4.59,1.69-1.05,3.8-3.67,4.72-2.62.92-5.22.29-5.82-1.4-.59-1.69,1.05-3.8,3.67-4.72Z"/><path class="cls-1" d="m92.05,123.77c1.68,2.21,4.2,3.12,5.62,2.04,1.42-1.08,1.22-3.75-.46-5.96-1.68-2.21-4.2-3.12-5.62-2.04-1.42,1.08-1.22,3.75.46,5.96Z"/><path class="cls-1" d="m84.37,129.7c2.91.34,5.09,2.13,4.87,4.01-.22,1.87-2.75,3.12-5.66,2.78-2.91-.34-5.09-2.13-4.87-4.01.22-1.87,2.75-3.12,5.66-2.78Z"/><path class="cls-1" d="m84.81,128.24c2.61,1.32,5.42,1.03,6.27-.66.85-1.68-.58-4.12-3.19-5.44-2.61-1.32-5.42-1.03-6.27.66-.85,1.68.58,4.12,3.19,5.44Z"/><path class="cls-1" d="m248.38,204.56c.9-2.42-1.12-3.87-2.29-6.85-1.72-4.37-4.55-4.81-5.87-3.08-1.32,1.73.21,4.26-.68,6.35,0,0,0,.01,0,.02v.02c-.81,2.13-3.67,2.9-3.91,5.06-.24,2.16,2.1,3.81,6.37,1.84,2.91-1.34,5.37-.99,6.39-3.36Z"/><path class="cls-1" d="m252.47,199.5c-2.35.59-4.57-.16-4.95-1.67-.38-1.52,1.22-3.22,3.57-3.82,2.35-.59,4.57.16,4.95,1.67.38,1.52-1.22,3.22-3.57,3.82Z"/><path class="cls-1" d="m247.83,211.05c-1.29-2.05-3.4-3.05-4.73-2.22s-1.35,3.17-.07,5.22c1.29,2.05,3.4,3.05,4.73,2.22,1.32-.83,1.35-3.17.07-5.22Z"/><path class="cls-1" d="m254.98,206.49c-2.5-.52-4.26-2.26-3.92-3.87.34-1.61,2.64-2.5,5.14-1.97s4.26,2.26,3.92,3.87c-.34,1.61-2.64,2.5-5.14,1.97Z"/><path class="cls-1" d="m254.48,207.73c-2.17-1.35-4.63-1.32-5.51.08-.87,1.4.18,3.63,2.34,4.98,2.17,1.35,4.63,1.32,5.51-.08.87-1.4-.18-3.63-2.34-4.98Z"/><path class="cls-1" d="m27.51,265.98c.67,1.25,2,.94,3.66,1.54,2.43.88,3.64-.13,3.4-1.3s-1.83-1.46-2.37-2.59c0,0,0,0,0-.01,0,0,0,0,0-.01-.58-1.1.13-2.56-.67-3.45-.8-.88-2.34-.51-3.07,1.96-.5,1.69-1.54,2.58-.94,3.86Z"/><path class="cls-1" d="m28.11,269.51c.61-1.18,1.72-1.83,2.49-1.43s.89,1.67.28,2.86-1.72,1.83-2.49,1.43c-.76-.39-.89-1.67-.28-2.86Z"/><path class="cls-1" d="m25.03,263.4c1.32.22,2.49-.3,2.63-1.15s-.82-1.71-2.13-1.92c-1.32-.21-2.49.3-2.63,1.15-.14.85.81,1.71,2.13,1.92Z"/><path class="cls-1" d="m24.31,268c1.12-.84,2.48-.94,3.02-.21.54.73.07,2-1.05,2.84s-2.48.94-3.02.21-.07-2,1.05-2.84Z"/><path class="cls-1" d="m23.98,267.34c1.35-.4,2.23-1.43,1.97-2.3-.26-.87-1.56-1.25-2.91-.84-1.35.4-2.23,1.43-1.97,2.3.26.87,1.56,1.25,2.91.84Z"/><path class="cls-1" d="m333.25,132.2c-.95,3.28,1.86,4.99,3.69,8.81,2.69,5.59,6.48,5.89,8.04,3.48,1.57-2.41-.69-5.6.27-8.44,0,0,0-.02,0-.03,0,0,0-.02,0-.03.85-2.88,4.54-4.18,4.65-7.05s-3.15-4.81-8.58-1.8c-3.7,2.06-6.98,1.84-8.1,5.06Z"/><path class="cls-1" d="m328.35,139.27c3.04-1.01,6.04-.24,6.69,1.72.65,1.96-1.28,4.37-4.32,5.38-3.04,1.01-6.04.24-6.69-1.72-.65-1.96,1.28-4.37,4.32-5.38Z"/><path class="cls-1" d="m333.33,123.59c1.9,2.58,4.79,3.68,6.45,2.46,1.66-1.22,1.47-4.31-.43-6.89s-4.79-3.68-6.45-2.46c-1.66,1.22-1.47,4.31.43,6.89Z"/><path class="cls-1" d="m324.36,130.3c3.35.44,5.84,2.55,5.55,4.71-.29,2.16-3.23,3.55-6.58,3.11-3.35-.44-5.84-2.55-5.55-4.71.29-2.16,3.23-3.55,6.58-3.11Z"/><path class="cls-1" d="m324.89,128.62c2.99,1.57,6.24,1.28,7.25-.65s-.59-4.77-3.58-6.34c-2.99-1.57-6.24-1.28-7.25.65s.59,4.77,3.58,6.34Z"/><path class="cls-1" d="m210.68,23.57c1.21.27,1.77-.79,3.11-1.55,1.97-1.11,1.99-2.49,1.07-3.01-.91-.51-2.02.39-3.08.1,0,0,0,0,0,0,0,0,0,0,0,0-1.07-.24-1.63-1.55-2.67-1.52-1.05.03-1.67,1.26-.45,3.16.83,1.3.84,2.49,2.03,2.82Z"/><path class="cls-1" d="m213.37,25.18c-.44-1.08-.23-2.19.46-2.47s1.62.36,2.06,1.44c.44,1.08.23,2.19-.46,2.47-.7.28-1.62-.36-2.06-1.44Z"/><path class="cls-1" d="m207.56,23.74c.89-.75,1.22-1.83.74-2.4-.48-.58-1.6-.43-2.49.32-.89.75-1.22,1.83-.74,2.4s1.6.43,2.49-.32Z"/><path class="cls-1" d="m210.21,26.84c.08-1.23.79-2.18,1.58-2.13.79.05,1.37,1.09,1.29,2.32-.08,1.23-.79,2.18-1.58,2.13s-1.37-1.09-1.29-2.32Z"/><path class="cls-1" d="m209.58,26.69c.5-1.12.32-2.3-.41-2.62-.73-.32-1.72.33-2.22,1.45-.5,1.12-.32,2.3.41,2.62s1.72-.33,2.22-1.45Z"/><path class="cls-1" d="m119.13,56.16c-1.79,1.83-.55,3.96-.68,7.14-.2,4.66,2.19,6.2,4.09,5.16,1.89-1.04,1.53-3.95,3.18-5.49,0,0,.01,0,.02-.01v-.02c1.6-1.6,4.51-1.15,5.6-3.02,1.09-1.86-.38-4.31-5.04-4.24-3.18.05-5.27-1.26-7.16.47Z"/><path class="cls-1" d="m113.38,59.11c2.37.41,4.08,1.98,3.82,3.51-.26,1.53-2.4,2.44-4.78,2.03-2.37-.41-4.08-1.98-3.82-3.51.26-1.53,2.4-2.44,4.78-2.03Z"/><path class="cls-1" d="m122.24,50.5c.34,2.38,1.86,4.14,3.4,3.92,1.54-.22,2.51-2.33,2.17-4.71s-1.86-4.14-3.4-3.92c-1.54.22-2.51,2.33-2.17,4.71Z"/><path class="cls-1" d="m113.92,51.75c2.06,1.48,2.96,3.76,2,5.09-.96,1.33-3.4,1.2-5.46-.28-2.06-1.48-2.96-3.76-2-5.09.96-1.33,3.4-1.2,5.46.28Z"/><path class="cls-1" d="m114.87,50.82c1.42,2.1,3.67,3.07,5.03,2.15s1.3-3.37-.12-5.47c-1.42-2.1-3.67-3.07-5.03-2.15-1.36.92-1.3,3.37.12,5.47Z"/><path class="cls-1" d="m126.14,262.67c.47-1.09-.41-1.8-.88-3.2-.68-2.05-1.97-2.32-2.61-1.56-.65.76-.01,1.96-.47,2.9,0,0,0,0,0,0,0,0,0,0,0,0-.42.95-1.75,1.24-1.92,2.22-.17.98.87,1.8,2.88,1.01,1.37-.54,2.49-.32,3.02-1.38Z"/><path class="cls-1" d="m128.14,260.45c-1.09.21-2.09-.19-2.23-.89-.14-.7.64-1.45,1.73-1.66,1.09-.21,2.09.19,2.23.89.14.71-.64,1.45-1.73,1.66Z"/><path class="cls-1" d="m125.72,265.63c-.54-.98-1.48-1.48-2.11-1.14-.63.35-.7,1.42-.16,2.39.54.98,1.48,1.48,2.11,1.14.63-.35.7-1.42.16-2.39Z"/><path class="cls-1" d="m129.11,263.72c-1.13-.3-1.9-1.14-1.7-1.87.2-.73,1.27-1.08,2.41-.77,1.13.3,1.9,1.14,1.7,1.87-.2.73-1.27,1.08-2.41.77Z"/><path class="cls-1" d="m128.85,264.28c-.96-.68-2.09-.72-2.53-.1-.44.62-.01,1.67.95,2.35.96.68,2.09.72,2.53.1.44-.62.01-1.67-.95-2.35Z"/><path class="cls-1" d="m60.09,157.01c1.04-.86.51-2.05.77-3.71.37-2.44-.8-3.38-1.85-2.94s-1.03,1.99-1.98,2.7c0,0,0,0,0,0,0,0,0,0,0,0-.93.75-2.43.35-3.11,1.27-.68.92-.05,2.28,2.41,2.51,1.67.16,2.7.96,3.79.16Z"/><path class="cls-1" d="m63.28,155.79c-1.22-.35-2.03-1.27-1.81-2.06.23-.79,1.4-1.14,2.62-.79s2.03,1.27,1.81,2.06c-.23.79-1.4,1.14-2.62.79Z"/><path class="cls-1" d="m58.14,159.81c-.04-1.27-.74-2.28-1.56-2.25-.82.03-1.45,1.08-1.41,2.35.04,1.27.74,2.28,1.56,2.25.82-.03,1.45-1.08,1.41-2.35Z"/><path class="cls-1" d="m62.58,159.62c-1-.9-1.34-2.14-.76-2.79s1.86-.44,2.85.46c1,.9,1.34,2.14.76,2.79-.58.64-1.86.44-2.85-.46Z"/><path class="cls-1" d="m62.03,160.05c-.63-1.19-1.76-1.82-2.52-1.42-.76.4-.88,1.69-.25,2.88.63,1.19,1.76,1.82,2.52,1.41.76-.4.88-1.69.25-2.88Z"/><path class="cls-1" d="m216.44,69.05c2.84-2.77.99-6.11,1.33-11.02.49-7.2-3.16-9.67-6.13-8.14s-2.51,6.06-5.12,8.38c0,0-.02.01-.02.02,0,0-.02.02-.02.02-2.52,2.42-6.99,1.62-8.75,4.46-1.76,2.84.42,6.67,7.64,6.74,4.92.05,8.11,2.15,11.09-.47Z"/><path class="cls-1" d="m225.45,64.71c-3.66-.72-6.24-3.22-5.77-5.58.47-2.36,3.81-3.68,7.46-2.96,3.65.72,6.24,3.22,5.77,5.58-.47,2.36-3.81,3.68-7.46,2.96Z"/><path class="cls-1" d="m211.41,77.7c-.44-3.7-2.73-6.47-5.11-6.19-2.39.28-3.96,3.51-3.53,7.21s2.73,6.47,5.11,6.19c2.39-.28,3.96-3.51,3.53-7.21Z"/><path class="cls-1" d="m224.33,76.07c-3.13-2.37-4.43-5.93-2.9-7.95,1.53-2.02,5.31-1.73,8.44.64s4.43,5.93,2.9,7.95c-1.53,2.02-5.31,1.73-8.44-.64Z"/><path class="cls-1" d="m222.82,77.47c-2.12-3.31-5.57-4.88-7.7-3.51-2.13,1.37-2.14,5.16-.02,8.46,2.12,3.31,5.57,4.88,7.7,3.51s2.14-5.16.02-8.46Z"/><path class="cls-1" d="m341.67,54.4c-1.06-.6-1.89.23-3.36.56-2.16.47-2.58,1.76-1.87,2.51.71.74,2,.22,2.91.79,0,0,0,0,0,0,0,0,0,0,0,0,.93.53,1.08,1.92,2.07,2.2.99.27,1.93-.7,1.33-2.83-.41-1.45-.06-2.57-1.09-3.23Z"/><path class="cls-1" d="m339.62,52.11c.1,1.14-.41,2.11-1.15,2.18s-1.41-.81-1.51-1.94c-.1-1.14.41-2.12,1.15-2.18.73-.06,1.41.81,1.51,1.94Z"/><path class="cls-1" d="m344.65,55.13c-1.05.45-1.67,1.36-1.38,2.04s1.37.87,2.43.42c1.05-.45,1.67-1.36,1.38-2.04s-1.37-.87-2.43-.42Z"/><path class="cls-1" d="m343.06,51.47c-.43,1.13-1.37,1.82-2.09,1.54-.73-.28-.97-1.42-.54-2.54.43-1.13,1.37-1.82,2.09-1.54.73.28.97,1.41.54,2.54Z"/><path class="cls-1" d="m343.6,51.79c-.79.91-.96,2.06-.37,2.57s1.7.19,2.5-.72c.79-.91.96-2.06.37-2.57-.59-.51-1.7-.19-2.5.72Z"/><path class="cls-1" d="m168.97,78.99c1.25-1.02.62-2.44.93-4.42.45-2.9-.94-4.03-2.2-3.52-1.26.52-1.23,2.37-2.37,3.22,0,0,0,0-.01,0,0,0,0,0-.01,0-1.11.89-2.89.41-3.71,1.5-.81,1.09-.07,2.72,2.86,3,1.99.19,3.21,1.16,4.51.2Z"/><path class="cls-1" d="m172.78,77.55c-1.46-.42-2.42-1.53-2.14-2.46.27-.94,1.67-1.36,3.13-.93,1.46.42,2.42,1.53,2.14,2.46-.27.94-1.67,1.36-3.13.93Z"/><path class="cls-1" d="m166.63,82.32c-.05-1.52-.88-2.72-1.85-2.69-.98.03-1.73,1.28-1.68,2.8.05,1.52.88,2.72,1.85,2.69.98-.03,1.73-1.28,1.68-2.8Z"/><path class="cls-1" d="m171.93,82.12c-1.19-1.07-1.59-2.56-.9-3.33.69-.76,2.21-.52,3.4.56,1.19,1.07,1.59,2.56.9,3.33-.69.76-2.21.52-3.4-.56Z"/><path class="cls-1" d="m171.27,82.63c-.74-1.42-2.09-2.18-3-1.7-.91.48-1.05,2.01-.31,3.43.74,1.42,2.09,2.18,3,1.7.91-.48,1.05-2.02.31-3.43Z"/><path class="cls-1" d="m201.03,118.32c.64.97,1.71.62,3.11.99,2.05.54,2.97-.38,2.69-1.32-.28-.94-1.61-1.06-2.14-1.94,0,0,0,0,0,0,0,0,0,0,0,0-.56-.86-.08-2.11-.81-2.77-.72-.66-1.95-.25-2.37,1.83-.29,1.42-1.07,2.22-.48,3.23Z"/><path class="cls-1" d="m201.78,121.17c.41-1.02,1.27-1.63,1.93-1.36s.85,1.3.44,2.32c-.41,1.02-1.27,1.63-1.93,1.36-.66-.26-.85-1.3-.44-2.32Z"/><path class="cls-1" d="m198.8,116.39c1.09.08,2.02-.43,2.07-1.14.05-.7-.8-1.34-1.89-1.42-1.09-.08-2.02.43-2.07,1.14-.05.7.8,1.34,1.89,1.42Z"/><path class="cls-1" d="m198.56,120.22c.86-.77,1.96-.95,2.46-.4.5.55.21,1.63-.65,2.4-.86.77-1.96.95-2.46.4-.5-.55-.21-1.63.65-2.4Z"/><path class="cls-1" d="m198.24,119.7c1.07-.43,1.72-1.34,1.44-2.03-.28-.69-1.37-.9-2.44-.47-1.07.43-1.72,1.34-1.44,2.03.28.69,1.37.9,2.44.47Z"/><path class="cls-1" d="m410.21,102.63c1.3-3.68-1.78-5.83-3.62-10.31-2.7-6.57-7-7.17-8.95-4.53-1.96,2.64.41,6.44-.88,9.63,0,0,0,.02-.01.03,0,.01,0,.02-.01.03-1.17,3.23-5.47,4.47-5.79,7.74-.32,3.27,3.27,5.71,9.68,2.64,4.37-2.1,8.1-1.63,9.59-5.23Z"/><path class="cls-1" d="m416.29,94.88c-3.54.95-6.91-.13-7.52-2.42-.61-2.28,1.76-4.91,5.31-5.85,3.54-.95,6.91.13,7.52,2.42.61,2.28-1.76,4.91-5.31,5.85Z"/><path class="cls-1" d="m409.53,112.46c-1.99-3.08-5.22-4.53-7.2-3.25-1.98,1.29-1.98,4.82.02,7.9,1.99,3.08,5.22,4.53,7.2,3.25,1.98-1.29,1.98-4.82-.02-7.9Z"/><path class="cls-1" d="m420.24,105.41c-3.8-.73-6.49-3.31-6.02-5.76.47-2.45,3.94-3.84,7.73-3.11,3.8.73,6.49,3.31,6.02,5.76-.47,2.45-3.94,3.84-7.73,3.11Z"/><path class="cls-1" d="m419.52,107.29c-3.31-2-7.04-1.89-8.33.24-1.29,2.13.35,5.49,3.66,7.49,3.31,2,7.04,1.89,8.33-.24,1.29-2.13-.35-5.49-3.66-7.49Z"/><path class="cls-1" d="m363.31,21.25c.23-1.06-.7-1.54-1.37-2.71-.98-1.71-2.19-1.72-2.63-.92s.35,1.76.11,2.69c0,0,0,0,0,0h0c-.2.94-1.35,1.44-1.31,2.35s1.11,1.45,2.76.37c1.13-.74,2.17-.74,2.45-1.79Z"/><path class="cls-1" d="m364.71,18.89c-.94.39-1.91.22-2.16-.39-.25-.61.31-1.42,1.25-1.81s1.91-.22,2.16.39c.25.61-.31,1.42-1.25,1.81Z"/><path class="cls-1" d="m363.48,23.98c-.66-.78-1.6-1.06-2.1-.63s-.37,1.4.29,2.18c.66.78,1.6,1.06,2.1.63.5-.43.37-1.4-.29-2.18Z"/><path class="cls-1" d="m366.18,21.65c-1.07-.06-1.91-.68-1.87-1.37.04-.69.94-1.2,2.02-1.14s1.91.68,1.87,1.37c-.04.69-.94,1.2-2.02,1.14Z"/><path class="cls-1" d="m366.05,22.19c-.99-.43-2.01-.26-2.29.37-.28.64.3,1.5,1.28,1.93.99.43,2.01.26,2.29-.37.28-.64-.3-1.5-1.28-1.93Z"/><path class="cls-1" d="m302.74,85.09c1.46-2.09-.11-3.98-.48-7.12-.55-4.61-3.16-5.73-4.85-4.4s-.86,4.13-2.23,5.91c0,0,0,.01-.01.02,0,0,0,.01-.01.02-1.3,1.83-4.22,1.86-4.99,3.86s1.07,4.16,5.63,3.34c3.11-.56,5.38.38,6.95-1.62Z"/><path class="cls-1" d="m307.92,81.27c-2.39-.02-4.33-1.29-4.31-2.83.01-1.54,1.96-2.78,4.36-2.76,2.39.02,4.33,1.29,4.31,2.83-.01,1.54-1.96,2.78-4.36,2.76Z"/><path class="cls-1" d="m300.61,91.16c-.72-2.28-2.5-3.76-3.97-3.3-1.47.46-2.08,2.69-1.36,4.98.72,2.28,2.5,3.76,3.97,3.3,1.47-.46,2.08-2.69,1.36-4.98Z"/><path class="cls-1" d="m308.57,88.58c-2.26-1.12-3.51-3.21-2.79-4.67.72-1.46,3.14-1.73,5.41-.61,2.26,1.12,3.51,3.21,2.79,4.67-.72,1.46-3.14,1.73-5.41.61Z"/><path class="cls-1" d="m307.79,89.64c-1.74-1.83-4.1-2.41-5.28-1.3-1.18,1.12-.73,3.51,1,5.35,1.74,1.83,4.1,2.41,5.28,1.3,1.18-1.12.73-3.51-1-5.35Z"/><path class="cls-1" d="m369.86,261.35c.93-1.51-.23-2.77-.62-4.94-.57-3.18-2.43-3.86-3.55-2.87-1.12.99-.43,2.91-1.32,4.2,0,0,0,0,0,.01,0,0,0,0,0,.01-.83,1.33-2.86,1.46-3.32,2.89-.46,1.43.91,2.86,4.05,2.1,2.14-.51,3.76.05,4.77-1.41Z"/><path class="cls-1" d="m373.31,258.49c-1.67.08-3.06-.72-3.12-1.8s1.26-2.01,2.92-2.1,3.06.72,3.12,1.8-1.26,2.01-2.92,2.1Z"/><path class="cls-1" d="m368.62,265.66c-.59-1.56-1.89-2.52-2.89-2.14s-1.34,1.96-.75,3.52c.59,1.56,1.89,2.52,2.89,2.14s1.34-1.96.75-3.52Z"/><path class="cls-1" d="m374.06,263.55c-1.62-.69-2.57-2.1-2.13-3.14s2.12-1.33,3.74-.64c1.62.69,2.57,2.1,2.13,3.14s-2.12,1.33-3.74.64Z"/><path class="cls-1" d="m373.55,264.32c-1.28-1.21-2.95-1.52-3.73-.69-.78.83-.37,2.48.91,3.68,1.28,1.21,2.95,1.52,3.73.69.78-.83.37-2.48-.91-3.68Z"/><path class="cls-1" d="m93.04,187.78c-2.11-.59-3.21,1.22-5.65,2.42-3.59,1.76-3.76,4.2-2.2,5.2,1.56,1,3.6-.47,5.44.13,0,0,.01,0,.02,0,0,0,.01,0,.02,0,1.86.54,2.72,2.91,4.57,2.96s3.08-2.05,1.12-5.53c-1.34-2.37-1.22-4.49-3.3-5.19Z"/><path class="cls-1" d="m88.46,184.66c.67,1.95.19,3.89-1.07,4.32s-2.82-.81-3.49-2.76c-.67-1.95-.19-3.89,1.07-4.32s2.82.81,3.49,2.76Z"/><path class="cls-1" d="m98.59,187.79c-1.65,1.24-2.35,3.1-1.55,4.17.8,1.07,2.78.93,4.44-.31,1.65-1.24,2.35-3.1,1.55-4.17-.8-1.07-2.78-.93-4.44.31Z"/><path class="cls-1" d="m94.22,182.04c-.27,2.16-1.62,3.77-3.01,3.6-1.39-.17-2.3-2.07-2.04-4.23.27-2.16,1.62-3.77,3.01-3.6,1.39.17,2.3,2.07,2.04,4.23Z"/><path class="cls-1" d="m95.31,182.38c-1,1.94-.8,4.03.45,4.67,1.25.64,3.07-.4,4.07-2.34,1-1.94.8-4.03-.45-4.67-1.25-.64-3.07.4-4.07,2.34Z"/><path class="cls-1" d="m279.6,267.93c1.79-1.77.6-3.89.79-7.01.28-4.58-2.06-6.13-3.94-5.14s-1.57,3.86-3.21,5.35c0,0-.01,0-.02.01,0,0,0,0-.01.01-1.59,1.55-4.44,1.06-5.54,2.88-1.1,1.81.3,4.24,4.89,4.25,3.13,0,5.17,1.32,7.05-.35Z"/><path class="cls-1" d="m285.31,265.13c-2.33-.44-3.98-2.02-3.7-3.52.28-1.5,2.4-2.36,4.73-1.92,2.33.44,3.98,2.02,3.7,3.52s-2.4,2.36-4.73,1.92Z"/><path class="cls-1" d="m276.45,273.46c-.3-2.35-1.76-4.1-3.28-3.91s-2.5,2.25-2.21,4.6c.3,2.35,1.76,4.1,3.28,3.91s2.5-2.25,2.21-4.6Z"/><path class="cls-1" d="m284.65,272.36c-2-1.49-2.85-3.75-1.89-5.04s3.36-1.13,5.37.36c2,1.49,2.85,3.75,1.89,5.04s-3.36,1.13-5.37-.36Z"/><path class="cls-1" d="m283.7,273.25c-1.36-2.09-3.56-3.07-4.91-2.19-1.35.88-1.34,3.29.03,5.38,1.36,2.09,3.56,3.07,4.91,2.19,1.35-.88,1.34-3.29-.03-5.38Z"/><path class="cls-1" d="m54.5,209.26c-2.97,1.28-2.54,4.38-4.23,8.02-2.47,5.35-.41,8.3,2.3,8,2.71-.3,3.69-3.89,6.35-4.9,0,0,.02,0,.02,0,0,0,.02,0,.02-.01,2.63-1.11,5.81.8,7.98-.85,2.17-1.65,1.63-5.22-3.86-7.37-3.74-1.47-5.56-4.01-8.6-2.88Z"/><path class="cls-1" d="m46.35,209.94c2.58,1.62,3.82,4.28,2.78,5.94-1.04,1.66-3.98,1.7-6.56.08-2.58-1.62-3.82-4.28-2.78-5.94,1.04-1.66,3.98-1.7,6.56-.08Z"/><path class="cls-1" d="m60.86,204.12c-.75,2.95.19,5.73,2.1,6.21,1.9.48,4.05-1.52,4.79-4.47.75-2.95-.19-5.73-2.1-6.21s-4.05,1.52-4.79,4.47Z"/><path class="cls-1" d="m50.52,201.59c1.7,2.72,1.65,5.82-.1,6.92-1.76,1.1-4.56-.22-6.26-2.95-1.7-2.72-1.65-5.82.1-6.92,1.76-1.1,4.56.22,6.26,2.95Z"/><path class="cls-1" d="m52.08,200.97c.65,3.14,2.83,5.35,4.85,4.93s3.14-3.31,2.48-6.45c-.65-3.14-2.83-5.35-4.85-4.93-2.03.42-3.14,3.31-2.48,6.45Z"/><path class="cls-1" d="m130.41,165.12c-1.68,1.21-.99,3.07-1.54,5.58-.81,3.67.88,5.23,2.53,4.67,1.65-.56,1.77-2.93,3.29-3.92,0,0,0,0,.01,0h.01c1.49-1.06,3.73-.3,4.86-1.63,1.13-1.33.3-3.47-3.41-4.07-2.53-.41-4.01-1.74-5.75-.62Z"/><path class="cls-1" d="m125.43,166.66c1.83.66,2.97,2.15,2.54,3.32-.42,1.18-2.25,1.6-4.08.94-1.83-.66-2.97-2.15-2.54-3.32.42-1.18,2.25-1.6,4.08-.94Z"/><path class="cls-1" d="m133.68,161.06c-.06,1.94.9,3.55,2.15,3.59,1.25.04,2.32-1.5,2.38-3.44.06-1.94-.9-3.55-2.15-3.59-1.25-.04-2.32,1.5-2.38,3.44Z"/><path class="cls-1" d="m126.89,160.89c1.43,1.47,1.82,3.4.88,4.33-.95.92-2.87.48-4.3-.99-1.43-1.47-1.82-3.4-.88-4.33s2.87-.48,4.3.99Z"/><path class="cls-1" d="m127.78,160.29c.84,1.87,2.49,2.95,3.7,2.41,1.21-.54,1.51-2.49.67-4.36-.84-1.87-2.49-2.95-3.7-2.41s-1.51,2.49-.67,4.36Z"/><path class="cls-1" d="m290.64,135.35c2.03-3.03-.27-5.69-.91-10.18-.93-6.58-4.69-8.11-7.07-6.16-2.38,1.95-1.11,5.94-3.02,8.52,0,0-.01.02-.02.02,0,0-.01.02-.02.02-1.81,2.66-5.99,2.79-7.03,5.68-1.04,2.89,1.65,5.93,8.17,4.62,4.44-.89,7.72.39,9.9-2.53Z"/><path class="cls-1" d="m297.94,129.73c-3.43.05-6.23-1.71-6.26-3.92-.03-2.21,2.73-4.04,6.16-4.09,3.43-.04,6.23,1.71,6.26,3.92.03,2.21-2.73,4.04-6.16,4.09Z"/><path class="cls-1" d="m287.77,144.1c-1.1-3.25-3.69-5.31-5.78-4.6s-2.9,3.92-1.8,7.17c1.1,3.25,3.69,5.31,5.78,4.6,2.09-.71,2.9-3.92,1.8-7.17Z"/><path class="cls-1" d="m299.1,140.18c-3.27-1.54-5.12-4.5-4.13-6.61.99-2.11,4.45-2.57,7.72-1.03,3.27,1.54,5.12,4.5,4.13,6.61-.99,2.11-4.45,2.57-7.72,1.03Z"/><path class="cls-1" d="m298,141.72c-2.54-2.57-5.95-3.33-7.61-1.7-1.66,1.64-.95,5.05,1.6,7.63,2.54,2.57,5.95,3.33,7.61,1.7,1.66-1.64.95-5.05-1.6-7.63Z"/><path class="cls-1" d="m260.54,71.08c1.08.78,2.08-.03,3.72-.21,2.41-.26,3.01-1.61,2.33-2.5s-2.15-.48-3.07-1.2c0,0,0,0,0,0,0,0,0,0,0,0-.95-.69-.94-2.22-1.99-2.63s-2.18.53-1.78,2.92c.27,1.63-.24,2.81.8,3.64Z"/><path class="cls-1" d="m262.5,73.81c.03-1.25.7-2.25,1.5-2.23.81.02,1.44,1.04,1.41,2.29-.03,1.25-.7,2.25-1.51,2.23-.81-.02-1.44-1.04-1.41-2.29Z"/><path class="cls-1" d="m257.39,69.93c1.2-.36,1.98-1.28,1.75-2.05-.23-.77-1.39-1.1-2.59-.74s-1.98,1.28-1.75,2.05,1.39,1.1,2.59.74Z"/><path class="cls-1" d="m258.68,74.1c.6-1.17,1.7-1.81,2.46-1.42.76.39.88,1.65.28,2.83-.6,1.17-1.7,1.81-2.46,1.42-.76-.39-.88-1.65-.28-2.83Z"/><path class="cls-1" d="m258.13,73.69c.97-.89,1.29-2.13.71-2.75-.58-.62-1.83-.41-2.8.49-.97.89-1.29,2.13-.71,2.75.58.62,1.83.41,2.8-.49Z"/><path class="cls-1" d="m232.37,160.18c-1.98.75-1.79,2.78-3.01,5.12-1.78,3.42-.52,5.42,1.26,5.3,1.78-.12,2.53-2.43,4.3-3.01,0,0,.01,0,.02,0,0,0,.01,0,.02,0,1.75-.65,3.77.7,5.24-.31,1.47-1.01,1.22-3.36-2.3-4.94-2.4-1.08-3.51-2.79-5.53-2.15Z"/><ellipse class="cls-1" cx="225.7" cy="162.29" rx="2.33" ry="3.61" transform="translate(-36.36 255.04) rotate(-55.21)"/><path class="cls-1" d="m236.69,157.02c-.58,1.91-.05,3.75,1.18,4.13,1.23.37,2.69-.87,3.27-2.78.58-1.91.05-3.75-1.18-4.13-1.23-.37-2.69.87-3.27,2.78Z"/><path class="cls-1" d="m230.01,155.05c1.03,1.83.9,3.85-.28,4.52s-2.97-.29-4-2.12c-1.03-1.83-.9-3.86.28-4.52s2.97.29,4,2.12Z"/><path class="cls-1" d="m231.05,154.69c.33,2.07,1.68,3.58,3.02,3.37,1.34-.21,2.15-2.07,1.82-4.14-.33-2.07-1.68-3.58-3.02-3.37-1.34.21-2.15,2.07-1.82,4.14Z"/><path class="cls-1" d="m411.78,161.45c-.07-4.14-3.93-5.13-7.42-8.9-5.12-5.53-9.61-4.52-10.57-1.17s2.8,6.25,2.69,9.89c0,.01,0,.02,0,.03,0,.01,0,.02,0,.03.04,3.65-3.78,6.47-2.88,9.84.9,3.37,5.37,4.46,10.59-.97,3.56-3.7,7.44-4.62,7.59-8.75Z"/><path class="cls-1" d="m414.94,151.5c-3.17,2.26-6.91,2.43-8.37.39-1.46-2.04-.07-5.53,3.1-7.78,3.17-2.26,6.91-2.43,8.37-.39,1.46,2.04.07,5.53-3.1,7.78Z"/><path class="cls-1" d="m414.75,171.46c-3.12-2.32-6.87-2.56-8.36-.55-1.49,2.01-.17,5.52,2.95,7.84,3.12,2.32,6.87,2.56,8.36.55,1.49-2.01.17-5.52-2.95-7.84Z"/><path class="cls-1" d="m422.77,160.49c-4.04.68-7.68-.88-8.12-3.49-.44-2.61,2.48-5.27,6.53-5.95,4.04-.68,7.68.88,8.12,3.49s-2.48,5.27-6.53,5.95Z"/><path class="cls-1" d="m422.75,162.63c-4.03-.76-7.69.73-8.18,3.33-.49,2.6,2.38,5.32,6.41,6.08,4.03.76,7.69-.73,8.18-3.33.49-2.6-2.38-5.32-6.41-6.08Z"/><path class="cls-1" d="m409.45,24.02c-.92-.88-1.98-.25-3.56-.3-2.32-.07-3.08,1.13-2.55,2.07.53.94,1.98.74,2.76,1.55,0,0,0,0,0,0h0c.81.79.6,2.24,1.54,2.77.93.53,2.14-.21,2.08-2.54-.04-1.58.6-2.64-.28-3.56Z"/><path class="cls-1" d="m407.95,21.17c-.19,1.18-.96,2.05-1.73,1.92-.76-.12-1.23-1.18-1.04-2.37s.96-2.05,1.73-1.92c.76.12,1.23,1.18,1.04,2.37Z"/><path class="cls-1" d="m412.3,25.54c-1.19.18-2.05.95-1.93,1.72.12.76,1.18,1.23,2.36,1.05,1.19-.18,2.05-.95,1.93-1.72-.12-.76-1.18-1.23-2.36-1.05Z"/><path class="cls-1" d="m411.62,21.4c-.73,1.04-1.86,1.5-2.52,1.03-.67-.47-.62-1.69.11-2.72.73-1.04,1.86-1.5,2.52-1.03.67.47.62,1.69-.11,2.72Z"/><path class="cls-1" d="m412.09,21.86c-1.04.72-1.51,1.85-1.04,2.52.47.67,1.68.63,2.72-.09,1.04-.72,1.51-1.85,1.04-2.52-.47-.67-1.68-.63-2.72.09Z"/><path class="cls-1" d="m295.19,223.86c-.26-3.48-3.56-4.14-6.68-7.15-4.58-4.42-8.31-3.36-8.97-.49-.65,2.87,2.66,5.13,2.74,8.21,0,0,0,.02,0,.03,0,0,0,.02,0,.03.2,3.07-2.88,5.63-1.96,8.43.92,2.8,4.74,3.5,8.88-1.32,2.82-3.29,6.05-4.25,5.98-7.74Z"/><path class="cls-1" d="m297.38,215.32c-2.56,2.05-5.71,2.38-7.04.73-1.32-1.65-.32-4.66,2.24-6.71,2.56-2.05,5.71-2.38,7.04-.73,1.32,1.65.32,4.66-2.24,6.71Z"/><path class="cls-1" d="m298.17,232.16c-2.74-1.8-5.91-1.83-7.07-.07s.12,4.67,2.86,6.47c2.74,1.81,5.91,1.83,7.07.07s-.12-4.66-2.86-6.47Z"/><path class="cls-1" d="m304.41,222.52c-3.38.77-6.51-.38-7.01-2.55-.49-2.18,1.84-4.56,5.22-5.33,3.38-.77,6.51.38,7.01,2.55.49,2.18-1.84,4.56-5.22,5.33Z"/><path class="cls-1" d="m304.49,224.33c-3.43-.45-6.45.99-6.74,3.2s2.26,4.37,5.7,4.82c3.43.45,6.45-.99,6.74-3.2.29-2.21-2.26-4.37-5.7-4.82Z"/><path class="cls-1" d="m26.66,24.58c-1.71-.24-2.38,1.29-4.16,2.48-2.62,1.75-2.5,3.67-1.17,4.29,1.32.62,2.76-.75,4.26-.47,0,0,0,0,.01,0h.01c1.51.22,2.43,1.99,3.88,1.83,1.45-.15,2.19-1.93.29-4.44-1.3-1.71-1.42-3.37-3.12-3.71Z"/><path class="cls-1" d="m22.76,22.62c.73,1.46.55,3.01-.38,3.48-.94.47-2.29-.33-3.01-1.79-.73-1.46-.55-3.01.38-3.48s2.29.33,3.01,1.79Z"/><path class="cls-1" d="m30.99,24c-1.16,1.14-1.51,2.67-.77,3.42.73.75,2.27.43,3.43-.71,1.16-1.14,1.51-2.67.77-3.42s-2.27-.43-3.43.71Z"/><path class="cls-1" d="m26.98,19.98c.02,1.72-.86,3.11-1.97,3.13-1.11.01-2.02-1.37-2.03-3.09s.86-3.11,1.97-3.13c1.11-.01,2.02,1.37,2.03,3.09Z"/><path class="cls-1" d="m27.86,20.12c-.58,1.62-.2,3.23.84,3.6s2.35-.64,2.93-2.25c.58-1.62.2-3.23-.84-3.6s-2.35.64-2.93,2.25Z"/><path class="cls-1" d="m72.41,28.52c-.56,1.31.51,2.17,1.07,3.85.82,2.46,2.38,2.78,3.15,1.87.78-.92,0-2.36.56-3.49h0s0-.02,0-.02c.51-1.15,2.1-1.5,2.3-2.68.2-1.18-1.05-2.16-3.46-1.2-1.64.66-2.99.4-3.62,1.67Z"/><path class="cls-1" d="m70.01,31.19c1.31-.26,2.52.22,2.68,1.06.17.85-.76,1.74-2.08,2-1.31.26-2.52-.22-2.68-1.06s.76-1.74,2.08-2Z"/><path class="cls-1" d="m72.9,24.95c.65,1.17,1.79,1.78,2.55,1.36.75-.42.84-1.71.19-2.88-.65-1.17-1.79-1.78-2.55-1.36-.75.42-.84,1.71-.19,2.88Z"/><path class="cls-1" d="m68.82,27.26c1.37.36,2.29,1.37,2.05,2.25-.23.88-1.53,1.3-2.89.94s-2.29-1.37-2.05-2.25c.23-.88,1.53-1.3,2.89-.94Z"/><path class="cls-1" d="m69.13,26.59c1.16.81,2.52.86,3.04.11.52-.75,0-2.01-1.15-2.82s-2.52-.86-3.04-.11,0,2.01,1.15,2.82Z"/><path class="cls-1" d="m165.24,29.79c3.94,1.24,6.11-2.1,10.79-4.21,6.86-3.1,7.33-7.67,4.46-9.65-2.87-1.97-6.81.67-10.23-.58-.01,0-.02,0-.03-.01-.01,0-.02,0-.03-.01-3.47-1.12-4.94-5.63-8.41-5.85-3.48-.22-5.93,3.68-2.44,10.35,2.38,4.55,2.02,8.52,5.9,9.97Z"/><path class="cls-1" d="m173.68,35.94c-1.14-3.72-.11-7.32,2.28-8.06,2.4-.73,5.26,1.69,6.4,5.4,1.14,3.72.11,7.32-2.28,8.06-2.4.73-5.26-1.69-6.4-5.4Z"/><path class="cls-1" d="m154.81,29.43c3.19-2.23,4.61-5.7,3.17-7.75s-5.18-1.91-8.37.31-4.61,5.7-3.17,7.75,5.18,1.91,8.37-.31Z"/><path class="cls-1" d="m162.68,40.51c.64-4.05,3.27-7,5.88-6.59s4.21,4.03,3.57,8.08c-.64,4.05-3.27,7-5.88,6.59-2.61-.41-4.21-4.03-3.57-8.08Z"/><path class="cls-1" d="m160.65,39.81c2-3.58,1.74-7.53-.57-8.81s-5.8.57-7.79,4.15c-2,3.58-1.74,7.53.57,8.81s5.8-.57,7.79-4.15Z"/><path class="cls-1" d="m341.51,220.06c-1.89-.41-2.76,1.24-4.86,2.42-3.07,1.74-3.1,3.89-1.67,4.69,1.42.8,3.15-.6,4.8-.16,0,0,.01,0,.02,0,0,0,.01,0,.02,0,1.67.38,2.54,2.42,4.17,2.37,1.63-.05,2.61-1.97.7-4.93-1.3-2.02-1.3-3.89-3.17-4.4Z"/><path class="cls-1" d="m337.32,217.54c.69,1.69.36,3.41-.72,3.86-1.09.44-2.53-.57-3.21-2.25-.69-1.69-.36-3.41.72-3.86,1.09-.44,2.53.57,3.21,2.25Z"/><path class="cls-1" d="m346.39,219.78c-1.39,1.17-1.91,2.85-1.15,3.75.76.9,2.5.67,3.89-.5s1.91-2.85,1.15-3.75c-.76-.9-2.5-.67-3.89.5Z"/><path class="cls-1" d="m342.26,214.95c-.13,1.92-1.23,3.4-2.47,3.32-1.24-.08-2.13-1.7-2.01-3.62.13-1.92,1.23-3.4,2.47-3.32,1.24.08,2.13,1.7,2.01,3.62Z"/><path class="cls-1" d="m343.23,215.19c-.78,1.75-.5,3.59.64,4.09,1.13.5,2.68-.51,3.46-2.27.78-1.76.5-3.59-.64-4.09-1.13-.5-2.68.51-3.46,2.27Z"/><path class="cls-1" d="m19.82,170.79c2.22,2.08,4.72.54,8.5.62,5.54.12,7.3-2.77,6.02-4.99-1.28-2.22-4.74-1.71-6.61-3.63,0,0-.01-.01-.02-.02,0,0-.01-.01-.02-.02-1.95-1.84-1.49-5.3-3.73-6.55-2.24-1.25-5.1.56-4.9,6.1.14,3.77-1.35,6.3.76,8.49Z"/><path class="cls-1" d="m23.47,177.54c.42-2.83,2.24-4.9,4.07-4.63,1.82.27,2.96,2.79,2.54,5.62-.42,2.83-2.24,4.9-4.07,4.63-1.82-.27-2.96-2.79-2.54-5.62Z"/><path class="cls-1" d="m13.01,167.25c2.82-.47,4.86-2.32,4.56-4.14-.3-1.82-2.83-2.91-5.66-2.44-2.82.47-4.86,2.32-4.56,4.14.3,1.82,2.83,2.91,5.66,2.44Z"/><path class="cls-1" d="m14.72,177.1c1.71-2.49,4.39-3.61,5.99-2.51,1.6,1.1,1.52,4.01-.18,6.5-1.71,2.49-4.39,3.61-5.99,2.51-1.6-1.1-1.52-4.01.18-6.5Z"/><path class="cls-1" d="m13.6,175.99c2.46-1.75,3.54-4.45,2.42-6.03-1.13-1.59-4.03-1.46-6.49.29-2.46,1.75-3.54,4.45-2.42,6.03,1.13,1.59,4.03,1.46,6.49-.29Z"/><path class="cls-1" d="m249.47,116.02c-1.42-2.52-4.13-1.85-7.53-3.01-4.99-1.7-7.42.41-6.9,2.8s3.8,2.91,4.95,5.19c0,0,0,.01.01.02,0,0,0,.01.01.02,1.24,2.23-.17,5.24,1.5,7.02s4.79.96,6.2-4.12c.96-3.46,3.04-5.32,1.76-7.92Z"/><path class="cls-1" d="m248.1,108.83c-1.2,2.44-3.45,3.8-5.02,3.03s-1.88-3.38-.68-5.83c1.2-2.44,3.45-3.8,5.02-3.03s1.88,3.38.68,5.83Z"/><path class="cls-1" d="m254.63,121.19c-2.69-.39-5.08.71-5.33,2.44-.25,1.74,1.73,3.46,4.43,3.85,2.69.39,5.08-.71,5.33-2.44s-1.73-3.46-4.43-3.85Z"/><path class="cls-1" d="m255.91,111.76c-2.26,1.77-5.02,2.01-6.16.55-1.14-1.46-.23-4.07,2.04-5.84,2.26-1.77,5.02-2.01,6.16-.55,1.14,1.46.23,4.07-2.04,5.84Z"/><path class="cls-1" d="m256.61,113.09c-2.73.88-4.49,3.01-3.93,4.78.56,1.76,3.24,2.48,5.97,1.61s4.49-3.01,3.93-4.78c-.56-1.76-3.24-2.48-5.97-1.61Z"/><path class="cls-1" d="m116.9,96.02c1.17,2.01,3.33,1.44,6.08,2.34,4.03,1.31,5.95-.41,5.51-2.32s-3.08-2.3-4.03-4.12c0,0,0-.01,0-.02,0,0,0-.01,0-.02-1.02-1.78.08-4.21-1.28-5.62s-3.86-.72-4.93,3.38c-.73,2.79-2.39,4.3-1.33,6.37Z"/><path class="cls-1" d="m118.07,101.77c.94-1.98,2.73-3.09,4-2.48,1.27.6,1.55,2.69.61,4.67-.94,1.98-2.73,3.09-4,2.48-1.27-.6-1.55-2.69-.61-4.67Z"/><ellipse class="cls-1" cx="113.03" cy="89.39" rx="2.55" ry="3.96" transform="translate(9.79 189.93) rotate(-82.58)"/><path class="cls-1" d="m111.77,99.5c1.8-1.44,4.01-1.67,4.94-.51.93,1.16.22,3.27-1.57,4.71s-4.01,1.67-4.94.51c-.93-1.16-.22-3.27,1.57-4.71Z"/><path class="cls-1" d="m111.19,98.45c2.19-.73,3.58-2.47,3.1-3.88-.47-1.41-2.63-1.96-4.81-1.23-2.19.73-3.58,2.47-3.1,3.88s2.63,1.96,4.81,1.23Z"/><path class="cls-1" d="m244.33,245.01c2.51-1.29,1.95-3.95,3.21-7.21,1.84-4.79-.12-7.24-2.46-6.82-2.34.42-2.98,3.59-5.24,4.62,0,0-.01,0-.02,0,0,0-.01,0-.02.01-2.22,1.12-5.09-.36-6.88,1.2-1.79,1.56-1.11,4.62,3.78,6.18,3.33,1.06,5.06,3.16,7.64,2.01Z"/><ellipse class="cls-1" cx="252.84" cy="241.22" rx="3.09" ry="4.8" transform="translate(-79.45 349.37) rotate(-61.68)"/><path class="cls-1" d="m239.1,249.83c.48-2.61-.5-4.97-2.18-5.28-1.68-.31-3.43,1.56-3.91,4.16-.48,2.61.5,4.97,2.18,5.28,1.68.31,3.43-1.56,3.91-4.16Z"/><path class="cls-1" d="m248.23,251.43c-1.63-2.27-1.77-4.96-.31-6.01,1.46-1.05,3.97-.07,5.61,2.2s1.77,4.96.31,6.01c-1.46,1.05-3.97.07-5.61-2.2Z"/><path class="cls-1" d="m246.91,252.07c-.75-2.69-2.76-4.48-4.5-4-1.74.48-2.54,3.06-1.79,5.75.75,2.69,2.76,4.48,4.5,4s2.54-3.06,1.79-5.75Z"/><path class="cls-1" d="m70.93,79.66c2.4,1.13,4.07-.81,7.23-1.75,4.64-1.38,5.33-4.25,3.68-5.76-1.66-1.51-4.39-.16-6.46-1.26,0,0-.01,0-.02-.01,0,0-.01,0-.02,0-2.11-1.01-2.65-4.01-4.85-4.45-2.2-.44-4.09,1.83-2.45,6.38,1.12,3.1.55,5.6,2.89,6.86Z"/><path class="cls-1" d="m75.76,84.31c-.4-2.47.56-4.67,2.15-4.93,1.59-.26,3.2,1.53,3.6,3.99s-.56,4.67-2.15,4.93c-1.59.26-3.2-1.53-3.6-3.99Z"/><path class="cls-1" d="m64.32,78.53c2.22-1.14,3.43-3.23,2.69-4.66-.74-1.43-3.13-1.67-5.35-.53-2.22,1.14-3.43,3.23-2.69,4.66.74,1.43,3.13,1.67,5.35.53Z"/><path class="cls-1" d="m68.37,86.27c.76-2.52,2.69-4.17,4.31-3.69s2.33,2.93,1.58,5.45c-.76,2.52-2.69,4.17-4.31,3.69-1.63-.49-2.33-2.93-1.58-5.45Z"/><path class="cls-1" d="m67.14,85.65c1.58-2.11,1.76-4.64.4-5.66-1.36-1.02-3.74-.14-5.32,1.97-1.58,2.11-1.76,4.64-.4,5.66s3.74.14,5.32-1.97Z"/><path class="cls-1" d="m179.54,165.38c.51,2.17,2.66,2.25,4.93,3.83,3.33,2.32,5.58,1.28,5.7-.6s-2.19-2.97-2.55-4.9c0,0,0-.01,0-.02,0,0,0-.01,0-.02-.44-1.92,1.25-3.84.39-5.51-.86-1.67-3.34-1.73-5.46,1.73-1.45,2.36-3.39,3.29-2.99,5.48Z"/><path class="cls-1" d="m179.02,170.98c1.41-1.55,3.36-2.07,4.36-1.17,1,.91.67,2.9-.74,4.45-1.41,1.55-3.36,2.07-4.36,1.17-1-.91-.67-2.9.74-4.45Z"/><path class="cls-1" d="m176.83,160.45c1.91.86,3.91.56,4.46-.67.56-1.23-.54-2.93-2.45-3.79-1.91-.86-3.91-.56-4.46.67s.54,2.93,2.45,3.79Z"/><path class="cls-1" d="m173.87,167.15c2.05-.82,4.14-.42,4.67.9.53,1.32-.7,3.06-2.75,3.88-2.05.82-4.14.42-4.67-.9-.53-1.32.7-3.06,2.75-3.88Z"/><path class="cls-1" d="m173.64,166.02c2.21-.06,3.97-1.27,3.92-2.69-.04-1.42-1.87-2.53-4.07-2.46s-3.97,1.27-3.92,2.69c.04,1.42,1.87,2.53,4.07,2.46Z"/></g></svg>